<svg width="9" height="16" viewBox="0 0 9 16" fill="none" xmlns="http://www.w3.org/2000/svg">
<g clip-path="url(#clip0_29_36)">
<path d="M8.86875 10.5804C8.86875 11.4911 8.55781 12.2753 7.93594 12.933C7.31406 13.5908 6.50625 13.997 5.5125 14.1518V15.7143C5.5125 15.7976 5.48438 15.8661 5.42813 15.9196C5.37188 15.9732 5.3 16 5.2125 16H3.94688C3.86563 16 3.79531 15.9717 3.73594 15.9152C3.67656 15.8586 3.64688 15.7917 3.64688 15.7143V14.1518C3.23438 14.0982 2.83594 14.006 2.45156 13.875C2.06719 13.744 1.75 13.6116 1.5 13.4777C1.25 13.3438 1.01875 13.2009 0.80625 13.0491C0.59375 12.8973 0.448438 12.7857 0.370313 12.7143C0.292188 12.6429 0.2375 12.5893 0.20625 12.5536C0.1 12.4286 0.09375 12.3065 0.1875 12.1875L1.15313 10.9821C1.19688 10.9226 1.26875 10.8869 1.36875 10.875C1.4625 10.8631 1.5375 10.8899 1.59375 10.9554L1.6125 10.9732C2.31875 11.5625 3.07813 11.9345 3.89063 12.0893C4.12188 12.1369 4.35313 12.1607 4.58438 12.1607C5.09063 12.1607 5.53594 12.0327 5.92031 11.7768C6.30469 11.5208 6.49688 11.1577 6.49688 10.6875C6.49688 10.5208 6.45 10.3631 6.35625 10.2143C6.2625 10.0655 6.15781 9.94048 6.04219 9.83929C5.92656 9.7381 5.74375 9.62649 5.49375 9.50446C5.24375 9.38244 5.0375 9.2872 4.875 9.21875C4.7125 9.1503 4.4625 9.05357 4.125 8.92857C3.88125 8.83333 3.68906 8.75893 3.54844 8.70536C3.40781 8.65179 3.21563 8.57292 2.97188 8.46875C2.72813 8.36458 2.53281 8.27232 2.38594 8.19196C2.23906 8.11161 2.0625 8.00595 1.85625 7.875C1.65 7.74405 1.48281 7.61756 1.35469 7.49554C1.22656 7.37351 1.09063 7.22768 0.946875 7.05804C0.803125 6.88839 0.692188 6.71577 0.614063 6.54018C0.535938 6.36458 0.470313 6.16667 0.417188 5.94643C0.364063 5.72619 0.3375 5.49405 0.3375 5.25C0.3375 4.42857 0.64375 3.70833 1.25625 3.08929C1.86875 2.47024 2.66563 2.07143 3.64688 1.89286V0.285714C3.64688 0.208333 3.67656 0.141369 3.73594 0.0848214C3.79531 0.0282738 3.86563 0 3.94688 0H5.2125C5.3 0 5.37188 0.0267857 5.42813 0.0803571C5.48438 0.133929 5.5125 0.202381 5.5125 0.285714V1.85714C5.86875 1.89286 6.21406 1.96131 6.54844 2.0625C6.88281 2.16369 7.15469 2.26339 7.36406 2.36161C7.57344 2.45982 7.77188 2.57143 7.95938 2.69643C8.14688 2.82143 8.26875 2.90774 8.325 2.95536C8.38125 3.00298 8.42813 3.04464 8.46563 3.08036C8.57188 3.1875 8.5875 3.3006 8.5125 3.41964L7.75313 4.72321C7.70313 4.8125 7.63125 4.86012 7.5375 4.86607C7.45 4.88393 7.36563 4.8631 7.28438 4.80357C7.26563 4.78571 7.22031 4.75 7.14844 4.69643C7.07656 4.64286 6.95469 4.56399 6.78281 4.45982C6.61094 4.35565 6.42813 4.26042 6.23438 4.17411C6.04063 4.0878 5.80781 4.01042 5.53594 3.94196C5.26406 3.87351 4.99688 3.83929 4.73438 3.83929C4.14063 3.83929 3.65625 3.96726 3.28125 4.22321C2.90625 4.47917 2.71875 4.80952 2.71875 5.21429C2.71875 5.36905 2.74531 5.51191 2.79844 5.64286C2.85156 5.77381 2.94375 5.89732 3.075 6.01339C3.20625 6.12946 3.32969 6.22768 3.44531 6.30804C3.56094 6.38839 3.73594 6.48066 3.97031 6.58482C4.20469 6.68899 4.39375 6.76935 4.5375 6.82589C4.68125 6.88244 4.9 6.96429 5.19375 7.07143C5.525 7.19048 5.77813 7.28423 5.95313 7.35268C6.12813 7.42113 6.36563 7.5253 6.66563 7.66518C6.96563 7.80506 7.20156 7.93155 7.37344 8.04464C7.54531 8.15774 7.73906 8.30655 7.95469 8.49107C8.17031 8.6756 8.33594 8.86458 8.45156 9.05804C8.56719 9.25149 8.66563 9.47917 8.74688 9.74107C8.82813 10.003 8.86875 10.2827 8.86875 10.5804Z" fill="#9A9A9A"/>
</g>
<defs>
<clipPath id="clip0_29_36">
<rect width="9" height="16" fill="white"/>
</clipPath>
</defs>
</svg>
