<svg width="15" height="15" viewBox="0 0 15 15" fill="none" xmlns="http://www.w3.org/2000/svg">
<path d="M7.6875 1.25003C7.08125 1.26878 6.6125 1.77503 6.63125 2.37503C6.6375 2.52503 6.66875 2.66878 6.73125 2.81253L6.9125 3.21253C6.9375 3.29378 6.89375 3.38128 6.80625 3.40628C6.75 3.43753 6.6875 3.40628 6.64375 3.35628L6.38125 3.01253C6.175 2.75003 5.8625 2.58753 5.53125 2.58128C4.925 2.56878 4.425 3.05003 4.4125 3.65003C4.40625 3.91253 4.49375 4.16253 4.65625 4.37503L4.91875 4.68753H4.925C4.975 4.76878 4.95625 4.86878 4.8875 4.91878C4.83125 4.96253 4.75625 4.96253 4.70625 4.91878L4.375 4.65628C4.1625 4.49378 3.90625 4.40628 3.65 4.41253C3.05 4.42503 2.56875 4.92503 2.58125 5.53128C2.5875 5.86253 2.75 6.17503 3.0125 6.38128L3.36875 6.65628C3.4375 6.71878 3.4375 6.81878 3.3625 6.87503C3.34193 6.89634 3.31528 6.91079 3.2862 6.91638C3.25711 6.92197 3.22701 6.91844 3.2 6.90628H3.19375L2.8125 6.73128C2.66875 6.67503 2.525 6.63753 2.375 6.63128C1.775 6.61253 1.26875 7.08753 1.25 7.69378C1.25 8.14378 1.5 8.55628 1.9125 8.73128L9.03125 11.9L11.9 9.03128L8.73125 1.91253C8.55625 1.49378 8.125 1.23128 7.6875 1.25003ZM8.20625 3.81253C8.46875 3.80628 8.70625 3.95628 8.80625 4.19378L10.7125 8.46878L8.24375 6.00628L7.6625 4.68753C7.475 4.29378 7.7625 3.82503 8.20625 3.81253ZM6.15625 5.53128C6.325 5.53128 6.48125 5.59378 6.6 5.71878L9.60625 8.72503C9.85625 8.96253 9.8625 9.35628 9.625 9.60628C9.375 9.85628 8.9875 9.86253 8.725 9.60628L5.71875 6.60003C5.65931 6.54343 5.61176 6.47553 5.57889 6.40032C5.54602 6.32511 5.52849 6.2441 5.52732 6.16203C5.52616 6.07996 5.54138 5.99848 5.57211 5.92237C5.60283 5.84625 5.64844 5.77704 5.70625 5.71878C5.825 5.59378 5.9875 5.53128 6.15625 5.53128ZM4.45625 7.60628C4.5375 7.60628 4.625 7.63128 4.6875 7.66253L6.01875 8.25003L8.48125 10.7125L4.19375 8.80628C3.55625 8.53128 3.76875 7.58753 4.45625 7.60628ZM12.675 10.025L10.025 12.675L10.5562 13.2063C11.0312 13.675 11.7188 13.8563 12.3625 13.6875C12.6796 13.6011 12.9686 13.4335 13.201 13.2011C13.4334 12.9687 13.6011 12.6796 13.6875 12.3625C13.8562 11.7188 13.675 11.0313 13.2062 10.5563L12.675 10.025Z" fill="#9A9A9A"/>
</svg>
