<svg width="16" height="16" viewBox="0 0 16 16" fill="none" xmlns="http://www.w3.org/2000/svg">
<path d="M0.71875 3.71875V12.2812H15.2812V3.71875H0.71875ZM1.28125 4.28125H7.71875V6.7505C7.14844 6.87972 6.71875 7.39228 6.71875 8C6.71875 8.60772 7.14844 9.12031 7.71875 9.2495V11.7188H1.28125V9.78125H3.28125V6.21875H1.28125V4.28125ZM8.28125 4.28125H14.7188V6.21875H12.7188V9.78125H14.7188V11.7188H8.28125V9.2495C8.85156 9.12028 9.28125 8.60772 9.28125 8C9.28125 7.39228 8.85156 6.87969 8.28125 6.7505V4.28125ZM1.28125 6.78125H2.71875V9.21875H1.28125V6.78125ZM13.2812 6.78125H14.7188V9.21875H13.2812V6.78125ZM7.71875 7.33728V8.66272C7.46031 8.55438 7.28125 8.30022 7.28125 8C7.28125 7.69981 7.46031 7.44562 7.71875 7.33728ZM8.28125 7.33728C8.53969 7.44562 8.71875 7.69978 8.71875 8C8.71875 8.30019 8.53969 8.55438 8.28125 8.66272V7.33728Z" fill="#9A9A9A"/>
</svg>
