<svg width="74" height="119" viewBox="0 0 74 119" fill="none" xmlns="http://www.w3.org/2000/svg">
<path d="M13.5513 10.7379C11.285 7.32126 6.70627 6.41482 3.3069 8.69255C-0.0924766 10.9703 -1.01748 15.5722 1.24877 18.9888L23.1713 52.0625H11.1C7.0069 52.0625 3.70002 55.3861 3.70002 59.5C3.70002 63.6138 7.0069 66.9375 11.1 66.9375H29.6V74.375H11.1C7.0069 74.375 3.70002 77.6986 3.70002 81.8125C3.70002 85.9263 7.0069 89.25 11.1 89.25H29.6V104.125C29.6 108.239 32.9069 111.562 37 111.562C41.0932 111.562 44.4 108.239 44.4 104.125V89.25H62.9C66.9932 89.25 70.3 85.9263 70.3 81.8125C70.3 77.6986 66.9932 74.375 62.9 74.375H44.4V66.9375H62.9C66.9932 66.9375 70.3 63.6138 70.3 59.5C70.3 55.3861 66.9932 52.0625 62.9 52.0625H50.8288L72.7513 18.9888C75.0175 15.5722 74.0925 10.947 70.6932 8.66931C67.2938 6.39157 62.6919 7.32126 60.4257 10.7379L37 46.0892L13.5513 10.7379Z" fill="black"/>
</svg>
